# xmcd
#
# Track frame offsets: 
#        150
#        17508
#        43673
#        68145
#
# Disc length: 1181 seconds
#
# Revision: 0
# Processed by: cddbd v1.5.2PL0 Copyright (c) Steve Scherf et al.
# Submitted via: ExactAudioCopy v0.99pb5
#
DISCID=2a049b04
DTITLE=The Chimes - Heaven
DYEAR=1989
DGENRE=Soul
TTITLE0=Heaven
TTITLE1=Heaven (Heavy Club)
TTITLE2=Heaven (Attack Vocal Club Mix)
TTITLE3=So Much In Love (Extended Demo Version)
EXTD=
EXTT0=
EXTT1=
EXTT2=
EXTT3=
PLAYORDER=
